# xmcd
#
# Track frame offsets:
#	150
#	13473
#	28867
#	42994
#	58233
#	73485
#	87463
#	101043
#	115909
#	131417
#	144066
#	159044
#	173619
#	188088
#	201528
#	215700
#	227858
#
# Disc length: 3194 seconds
#
# Revision: 1
# Processed by: cddbd v1.5.1PL0 Copyright (c) Steve Scherf et al.
# Submitted via: audiograbber 1.83.01
#
DISCID=fe0c7811
DTITLE=Xodó dos Teclados - Vol 3
DYEAR=2005
DGENRE=Popular
TTITLE0=Melo Da Pilha
TTITLE1=Serão Extra
TTITLE2=Te Amo Baby
TTITLE3=Quero Te Amar
TTITLE4=Malena
TTITLE5=Volta Pra Me Socorrer
TTITLE6=Ela Chorou De Amor
TTITLE7=Não Da Pra Ser
TTITLE8=Diga Que Valeu
TTITLE9=Nu Pelado
TTITLE10=Locadora De Mulher
TTITLE11=Forró Xodó
TTITLE12=Sonhos Destruidos
TTITLE13=Candida
TTITLE14=A Verdade
TTITLE15=Amor De Um E Noventa E Nove
TTITLE16=O Peitinho
EXTD=
EXTT0=
EXTT1=
EXTT2=
EXTT3=
EXTT4=
EXTT5=
EXTT6=
EXTT7=
EXTT8=
EXTT9=
EXTT10=
EXTT11=
EXTT12=
EXTT13=
EXTT14=
EXTT15=
EXTT16=
PLAYORDER=
